<svg width="113" height="49" viewBox="0 0 113 49" fill="none" xmlns="http://www.w3.org/2000/svg">
<g clip-path="url(#clip0_1060_554)">
<g clip-path="url(#clip1_1060_554)">
<g clip-path="url(#clip2_1060_554)">
<path fill-rule="evenodd" clip-rule="evenodd" d="M53.199 40.6934C48.3186 40.6934 44.3458 36.5929 44.3458 31.5698C44.3458 26.5221 48.3186 22.4198 53.199 22.4198C56.6397 22.4198 59.623 24.4663 61.0845 27.4279L67.9604 23.3387C65.1193 17.9378 59.5647 14.2639 53.199 14.2639C43.9503 14.2639 36.4238 22.0176 36.4238 31.5698C36.4238 41.1012 43.954 48.8606 53.199 48.8606C59.7451 48.8606 65.4182 44.9781 68.1864 39.3178L61.3069 35.2324C59.9346 38.4365 56.8147 40.6934 53.199 40.6934Z" fill="#28222A"/>
<path fill-rule="evenodd" clip-rule="evenodd" d="M105.306 35.2318C103.936 38.4359 100.825 40.6929 97.2056 40.6929C92.3197 40.6929 88.3469 36.5943 88.3469 31.5692C88.3469 26.5216 92.3197 22.4211 97.2056 22.4211C100.646 22.4211 103.628 24.4657 105.093 27.4293L111.969 23.3382C109.126 17.9373 103.571 14.2634 97.2056 14.2634C87.9514 14.2634 80.4268 22.0171 80.4268 31.5692C80.4268 41.1007 87.9514 48.86 97.2056 48.86C103.746 48.86 109.425 44.9794 112.186 39.3173L105.306 35.2318Z" fill="#28222A"/>
<path fill-rule="evenodd" clip-rule="evenodd" d="M17.8924 14.263C14.9948 14.263 12.2557 15.024 9.87928 16.3658V0.484436H1.11719V31.5688C1.11719 41.1002 8.63641 48.8596 17.8924 48.8596C27.1392 48.8596 34.6712 41.1002 34.6712 31.5688C34.6712 22.0167 27.1392 14.263 17.8924 14.263ZM17.8924 40.6925C13.0102 40.6925 9.03551 36.5939 9.03551 31.5688C9.03551 26.5212 13.0102 22.4207 17.8924 22.4207C22.7728 22.4207 26.7456 26.5212 26.7456 31.5688C26.7456 36.5939 22.7728 40.6925 17.8924 40.6925Z" fill="#28222A"/>
<path fill-rule="evenodd" clip-rule="evenodd" d="M70.0117 39.8198C70.0117 44.8091 73.9281 48.8607 78.7738 48.8607V0.483704H70.0117V39.8198Z" fill="#28222A"/>
<path fill-rule="evenodd" clip-rule="evenodd" d="M23.457 31.5688C23.457 34.6733 21.0113 37.1915 17.9916 37.1915C14.9737 37.1915 12.5244 34.6733 12.5244 31.5688C12.5244 28.4455 14.9737 25.9274 17.9916 25.9274C21.0113 25.9274 23.457 28.4455 23.457 31.5688Z" fill="#28222A"/>
<path fill-rule="evenodd" clip-rule="evenodd" d="M58.6679 31.5688C58.6679 34.6733 56.2223 37.1915 53.1989 37.1915C50.1847 37.1915 47.7354 34.6733 47.7354 31.5688C47.7354 28.4455 50.1847 25.9274 53.1989 25.9274C56.2223 25.9274 58.6679 28.4455 58.6679 31.5688Z" fill="#28222A"/>
<path fill-rule="evenodd" clip-rule="evenodd" d="M102.668 31.5688C102.668 34.6733 100.219 37.1915 97.2046 37.1915C94.1849 37.1915 91.7393 34.6733 91.7393 31.5688C91.7393 28.4455 94.1849 25.9274 97.2046 25.9274C100.219 25.9274 102.668 28.4455 102.668 31.5688Z" fill="#28222A"/>
</g>
</g>
</g>
<defs>
<clipPath id="clip0_1060_554">
<rect width="113" height="48.86" fill="white"/>
</clipPath>
<clipPath id="clip1_1060_554">
<rect width="113" height="48.86" fill="white"/>
</clipPath>
<clipPath id="clip2_1060_554">
<rect width="112.989" height="48.86" fill="white" transform="translate(0.00585938)"/>
</clipPath>
</defs>
</svg>
