<svg height="261.59904085385443" viewBox="0 0 141.64 96.93" width="382.26439849932876" xmlns="http://www.w3.org/2000/svg">
  <defs>
    <style>
      .cls-1 {
        fill: #1e2d5f;
      }

      .cls-2 {
        fill: #231f20;
      }
    </style>
  </defs>
  <title>gw-logo-2</title>
  <g>
    <path d="M13.35,80c0-1.84-.11-2.09-1-2.34a4.81,4.81,0,0,0-.77-.06c-.09,0-.18,0-.18-.14s.11-.18.36-.18c1,0,2.45.06,2.56.06s1.54-.06,2.22-.06c.25,0,.36,0,.36.18s-.09.14-.18.14a3.69,3.69,0,0,0-.56.06c-.62.12-.8.5-.84,1.29s-.05,1.41-.05,2.36v2.54c0,1,0,1.06-.29,1.22a11.21,11.21,0,0,1-4.81,1A11.22,11.22,0,0,1,2.7,83.67,8.82,8.82,0,0,1,0,77.21a8.59,8.59,0,0,1,3.79-7.46,11.09,11.09,0,0,1,6-1.43,19.35,19.35,0,0,1,3.47.39,12.66,12.66,0,0,0,1.84.23c.22,0,.27.11.27.2a28.48,28.48,0,0,0-.16,3.22c0,.36-.05.47-.2.47s-.14-.13-.16-.33a3.59,3.59,0,0,0-.48-1.5c-.57-.86-2.4-1.84-5.32-1.84a7.24,7.24,0,0,0-4.85,1.5C2.9,71.7,2,73.76,2,76.42a9.25,9.25,0,0,0,2.4,6.27,8.25,8.25,0,0,0,5.94,2.43,6.2,6.2,0,0,0,2.59-.48.83.83,0,0,0,.45-.79Z"/>
    <path d="M29,69.21c.27-.75.36-.89.5-.89s.22.12.5.82c.34.86,3.89,10.22,5.28,13.67.81,2,1.47,2.38,2,2.51a3,3,0,0,0,.9.14c.14,0,.23,0,.23.13s-.21.19-.46.19-2,0-3.55,0c-.43,0-.68,0-.68-.16s.07-.14.16-.16.27-.25.13-.61l-2.1-5.57a.22.22,0,0,0-.21-.14H26.79c-.12,0-.18.07-.23.18l-1.36,4a4.93,4.93,0,0,0-.32,1.52c0,.45.48.66.87.66H26c.16,0,.23,0,.23.13s-.14.19-.34.19c-.55,0-1.52-.07-1.77-.07s-1.49.07-2.56.07c-.29,0-.43,0-.43-.19s.09-.13.2-.13.48,0,.66,0c1-.13,1.5-1,1.9-2.13Zm2.36,9.06c.11,0,.11-.06.09-.15L29.3,72c-.11-.34-.22-.34-.34,0l-2,6.12c0,.11,0,.15.07.15Z"/>
    <path d="M48.7,79.2c0,2.18,0,4,.12,4.92.06.66.2,1.16.88,1.25.32,0,.82.09,1,.09s.18.07.18.13-.11.19-.36.19c-1.25,0-2.68-.07-2.79-.07s-1.54.07-2.22.07c-.25,0-.36,0-.36-.19s0-.13.18-.13a4,4,0,0,0,.68-.09c.45-.09.57-.59.66-1.25.11-1,.11-2.74.11-4.92V69.62l-3.35,0c-1.41,0-2,.18-2.32.73a3.71,3.71,0,0,0-.38.7c-.07.18-.14.23-.23.23s-.11-.07-.11-.21.45-2.17.5-2.35.13-.44.22-.44a4.42,4.42,0,0,0,1,.28c.66.06,1.52.11,1.79.11h8.5a10.76,10.76,0,0,0,2.24-.23c.12,0,.12.14.12.28,0,.68-.07,2.24-.07,2.49s-.07.29-.16.29-.16-.06-.18-.38l0-.25c-.09-.68-.62-1.2-2.79-1.25l-2.86,0Z"/>
    <path d="M64.52,75.22c0-3.54,0-4.18,0-4.9s-.23-1.13-1-1.29a3.8,3.8,0,0,0-.77-.07c-.09,0-.18,0-.18-.14s.11-.18.36-.18c1,0,2.45.07,2.56.07s4.67,0,5.19,0a6.09,6.09,0,0,0,1-.12c.11,0,.2-.11.32-.11s.09.09.09.2-.12.44-.18,1.07c0,.23-.07,1.22-.12,1.5,0,.11-.07.25-.16.25s-.18-.12-.18-.3a2.54,2.54,0,0,0-.13-.82c-.16-.36-.39-.63-1.61-.77-.39,0-2.86-.06-3.11-.06-.09,0-.14.06-.14.22V76c0,.16,0,.22.14.22.3,0,3.09,0,3.6,0s.87-.09,1.07-.32.25-.29.34-.29.11,0,.11.18-.11.52-.18,1.27c0,.45-.09,1.29-.09,1.45s0,.43-.16.43-.15-.09-.15-.2A2.1,2.1,0,0,0,71,78c-.09-.32-.29-.71-1.17-.8-.62-.06-2.86-.11-3.25-.11a.15.15,0,0,0-.16.16v2c0,.77,0,3.4,0,3.88.07,1.56.41,1.86,2.64,1.86a6.45,6.45,0,0,0,2.17-.25c.59-.25.86-.7,1-1.63,0-.25.09-.34.2-.34s.14.18.14.34-.18,1.72-.29,2.19-.34.59-1.23.59c-3.42,0-4.94-.13-5.6-.13-.11,0-1.54.07-2.22.07-.25,0-.36,0-.36-.19s0-.13.18-.13a3.84,3.84,0,0,0,.68-.09c.46-.09.57-.59.66-1.25.11-1,.11-2.74.11-4.92Z"/>
    <path d="M97.38,82.65h.09c.62-2.09,2.7-8.66,3.5-11.56a5.19,5.19,0,0,0,.24-1.45c0-.41-.24-.68-1.29-.68a.18.18,0,0,1-.2-.16c0-.11.11-.16.38-.16,1.16,0,2.11.07,2.31.07s1.14-.07,1.84-.07c.2,0,.32,0,.32.14s-.07.18-.21.18a3,3,0,0,0-.77.11c-.68.25-1,1.2-1.47,2.45-1,2.88-3.29,10.09-4.17,12.62-.59,1.68-.7,2-1,2s-.37-.29-.68-1.18l-4.45-12.6h0c-.81,2.18-3.92,10.47-4.74,12.58-.36,1-.47,1.2-.74,1.2s-.34-.25-.8-1.79l-4-13.44c-.36-1.2-.66-1.54-1.25-1.76a3.47,3.47,0,0,0-1-.14c-.11,0-.2,0-.2-.16s.13-.16.36-.16c1.18,0,2.43.07,2.67.07s1.21-.07,2.34-.07c.32,0,.41.07.41.16s-.12.16-.23.16a2.14,2.14,0,0,0-.88.14.58.58,0,0,0-.3.54,19.06,19.06,0,0,0,.43,2.08c.34,1.45,2.7,9.77,3,11h0l4.8-12.91c.34-.93.43-1,.57-1s.29.3.56,1.07Z"/>
    <path d="M114.25,69.21c.27-.75.36-.89.49-.89s.23.12.5.82c.34.86,3.9,10.22,5.28,13.67.82,2,1.48,2.38,2,2.51a3.06,3.06,0,0,0,.91.14c.13,0,.22,0,.22.13s-.2.19-.45.19-2,0-3.56,0c-.43,0-.68,0-.68-.16s.07-.14.16-.16.27-.25.14-.61l-2.11-5.57c0-.09-.09-.14-.2-.14H112a.23.23,0,0,0-.22.18l-1.36,4a4.65,4.65,0,0,0-.32,1.52c0,.45.48.66.86.66h.23c.16,0,.22,0,.22.13s-.13.19-.34.19c-.54,0-1.51-.07-1.76-.07s-1.5.07-2.56.07c-.3,0-.44,0-.44-.19s.1-.13.21-.13.47,0,.66,0c1-.13,1.49-1,1.9-2.13Zm2.35,9.06c.12,0,.12-.06.09-.15L114.54,72c-.11-.34-.23-.34-.34,0l-2,6.12c0,.11,0,.15.06.15Z"/>
    <path d="M132.53,79.91a4.71,4.71,0,0,0-.52-2.38c-.16-.37-3.19-5.35-4-6.53a6.17,6.17,0,0,0-1.54-1.68,2.24,2.24,0,0,0-1-.36c-.12,0-.23,0-.23-.16s.09-.16.3-.16c.43,0,2.13.07,2.24.07s1-.07,1.9-.07c.25,0,.3.07.3.16s-.14.11-.34.2a.48.48,0,0,0-.3.41,2,2,0,0,0,.3.89c.36.65,3.76,6.5,4.17,7.16.43-.95,3.31-5.92,3.76-6.66a2.31,2.31,0,0,0,.39-1.16c0-.32-.1-.57-.37-.64s-.34-.11-.34-.22.14-.14.37-.14c.58,0,1.31.07,1.49.07s1.77-.07,2.2-.07c.16,0,.29,0,.29.14s-.11.18-.29.18a2.11,2.11,0,0,0-1,.32,4.23,4.23,0,0,0-1.21,1.15,73.07,73.07,0,0,0-4.32,7.21,5.44,5.44,0,0,0-.34,2.27v2c0,.36,0,1.31.07,2.26,0,.66.24,1.16.92,1.25.32,0,.82.09,1,.09s.18.07.18.13-.12.19-.37.19c-1.24,0-2.67-.07-2.78-.07s-1.54.07-2.22.07c-.25,0-.37,0-.37-.19s0-.13.18-.13a3.84,3.84,0,0,0,.68-.09c.46-.09.66-.59.7-1.25.07-1,.07-1.9.07-2.26Z"/>
  </g>
  <path class="cls-1" d="M100.28,33.69v.09c.62,14.68-12.75,17-14.68,17.22-.15,0-.1.12,0,.16,12.21,7.71,19-5.16,20-7.16,2-3.8,3.58-12.91-1.9-16.51-3.9-2.57-9.2-1.06-12,1.84-5.86,6-5.19,12.38-5.19,12.38a2.78,2.78,0,0,0,.11.7.94.94,0,0,0,.35.4l5.9,3.69c.21.11.32.08.36-.06a2.69,2.69,0,0,0,0-.45c0-1-.18-11.06,9.7-15.34.07,0,.25.12.13.22a18.69,18.69,0,0,0-2.58,2.35A.78.78,0,0,0,100.28,33.69Z"/>
  <path class="cls-1" d="M41.12,33.69a.28.28,0,0,1,0,.09C40.5,48.46,53.87,50.74,55.8,51c.15,0,.09.12,0,.16C43.62,58.87,36.88,46,35.83,44c-2-3.8-3.58-12.91,1.9-16.51,3.9-2.57,9.2-1.06,12.05,1.84C55.64,35.3,55,41.71,55,41.71a2.37,2.37,0,0,1-.12.7.89.89,0,0,1-.34.4l-5.9,3.69c-.21.11-.32.08-.36-.06a2.69,2.69,0,0,1,0-.45c0-1,.18-11.06-9.7-15.34-.07,0-.25.12-.13.22A19.28,19.28,0,0,1,41,33.22.78.78,0,0,1,41.12,33.69Z"/>
  <path class="cls-1" d="M92.73,18.72a.08.08,0,0,0,0-.15c-1.22-.38-2.37-.78-3.47-1.21-9.32,8.71-10.59,18.48-10.75,21.32,0,.52,0,.26-.06,0C78,26.58,86,18.35,87.73,16.74c-.88-.39-1.72-.79-2.51-1.2a31.84,31.84,0,0,0-8.86,19.53c0,.47-.06.24-.07,0-.47-10.35,5.56-18,7.56-20.27-.81-.46-1.56-.93-2.28-1.42C75.45,20.26,74.41,29,74.24,31.46c0,.43-.06.21-.07,0-.56-9.33,4.45-16.71,6.17-18.95-.75-.56-1.44-1.12-2.08-1.69-5,6-6,14.74-6.13,17,0,.37-.08.18-.09,0-.68-9,4-16.52,5.09-18.07C72.12,4.9,70.77.27,70.7,0h0a24.25,24.25,0,0,1-6.43,9.76c1,1.55,5.77,9.08,5.09,18.07,0,.2-.06.39-.09,0-.18-2.31-1.16-11-6.13-17-.64.57-1.33,1.13-2.08,1.69,1.72,2.24,6.73,9.62,6.17,19,0,.22,0,.44-.08,0C67,29,66,20.26,59.83,13.37c-.72.49-1.47,1-2.28,1.42,2,2.25,8,9.92,7.55,20.27,0,.25,0,.48-.06,0a31.84,31.84,0,0,0-8.86-19.53c-.79.41-1.63.81-2.51,1.2,1.71,1.61,9.73,9.84,9.31,21.93,0,.27,0,.53-.06,0-.16-2.84-1.43-12.61-10.76-21.32-1.09.43-2.24.83-3.46,1.21-.06,0-.12.08,0,.15A31.84,31.84,0,0,1,60.23,39.41c.42,3.31,1.13,13.3-9.67,15.17-.17,0-.34.08,0,.07,3-.14,18.42-1.75,20.14-20.23C72.41,52.9,87.8,54.51,90.84,54.65c.33,0,.17,0,0-.07C80,52.71,80.75,42.72,81.17,39.41A31.8,31.8,0,0,1,92.73,18.72Z"/>
  <g>
    <path class="cls-2" d="M4.34,96.17a2.63,2.63,0,0,1-.87-2.07,2.66,2.66,0,0,1,.82-1.92,3.06,3.06,0,0,1,2.21-.74,7.31,7.31,0,0,1,1,.07c.26,0,.49.1.7.12s.1,0,.1.08,0,.14,0,.39,0,.62,0,.76,0,.16-.09.16-.07-.06-.07-.16a1,1,0,0,0-.27-.64,2.07,2.07,0,0,0-1.42-.43,1.84,1.84,0,0,0-1.32.43,2.62,2.62,0,0,0,1.56,4.31c.63,0,1-.07,1.28-.4a1.14,1.14,0,0,0,.24-.46c0-.11,0-.14.09-.14s.07,0,.07.11a7,7,0,0,1-.16.93c0,.12-.06.15-.18.2a4.11,4.11,0,0,1-1.26.16A3.5,3.5,0,0,1,4.34,96.17Z"/>
    <path class="cls-2" d="M10.17,95.34s0,0-.06,0l-.33.8a1.09,1.09,0,0,0-.09.36c0,.11.06.17.25.17H10c.07,0,.09,0,.09.06s0,.06-.1.06l-.69,0-.71,0c-.08,0-.11,0-.11-.06s0-.06.07-.06h.18c.28,0,.38-.22.51-.52l1.61-3.75c.07-.17.12-.24.18-.24s.12.06.19.19c.14.33,1.17,2.77,1.57,3.67.23.54.41.62.52.64l.23,0q.09,0,.09.06s0,.06-.27.06H12.21c-.12,0-.19,0-.19,0s0,0,.08-.06a.09.09,0,0,0,.06-.13l-.48-1.2s0,0-.06,0ZM11.48,95s0,0,0,0l-.58-1.51s0-.06,0-.06,0,0,0,.06l-.6,1.5s0,.05,0,.05Z"/>
    <path class="cls-2" d="M13.92,96.76c-.1,0-.12-.07-.12-.21,0-.32,0-.69,0-.79s0-.15.07-.15.07,0,.07.1a1.25,1.25,0,0,0,0,.3.94.94,0,0,0,1,.59.77.77,0,0,0,.86-.75c0-.26-.07-.52-.61-.84l-.36-.21c-.73-.43-1-.83-1-1.36,0-.72.7-1.19,1.56-1.19a3.81,3.81,0,0,1,.87.09c.06,0,.09,0,.09.08s0,.25,0,.72c0,.12,0,.19-.08.19s-.06,0-.06-.11a.67.67,0,0,0-.16-.39.86.86,0,0,0-.69-.28c-.44,0-.84.23-.84.64s.1.47.65.78l.25.14c.81.45,1.07.9,1.07,1.44A1.29,1.29,0,0,1,16,96.67a1.79,1.79,0,0,1-1,.24A2.6,2.6,0,0,1,13.92,96.76Z"/>
    <path class="cls-2" d="M17.9,94.05c0-.9,0-1.07,0-1.26s-.08-.27-.21-.31a.85.85,0,0,0-.23,0c-.06,0-.09,0-.09-.07s0,0,.14,0h1.62c.08,0,.13,0,.13,0s0,.07-.1.07l-.18,0c-.17,0-.22.11-.23.32s0,.36,0,1.26v1c0,.58,0,1.06,0,1.31s.06.25.24.28l.32,0c.07,0,.1,0,.1.06s-.05.06-.12.06l-1,0-.8,0q-.12,0-.12-.06s0-.06.1-.06l.22,0c.12,0,.16-.11.18-.29s0-.72,0-1.3Z"/>
    <path class="cls-2" d="M21.13,96c0,.46.09.6.21.65a1.17,1.17,0,0,0,.32,0c.07,0,.11,0,.11.06s-.06.06-.14.06l-.8,0-.67,0c-.08,0-.14,0-.14-.06s0-.06.1-.06a1.27,1.27,0,0,0,.28,0c.16,0,.18-.2.19-.72l.06-3.53c0-.12,0-.2.1-.2s.16.09.27.19,1,1,1.9,1.9c.42.41,1.24,1.25,1.33,1.34h0L24.21,93c0-.36-.06-.47-.21-.52a.91.91,0,0,0-.32,0c-.08,0-.1,0-.1-.06s.06-.06.15-.06h1.39c.09,0,.14,0,.14.06s0,.06-.1.06a.62.62,0,0,0-.19,0c-.17,0-.22.15-.23.49l-.07,3.76c0,.13-.05.18-.09.18a.4.4,0,0,1-.26-.12l-1.8-1.72c-.67-.64-1.32-1.36-1.44-1.47h0Z"/>
    <path class="cls-2" d="M25.89,94.58a2.35,2.35,0,0,1,2.58-2.33A2.21,2.21,0,0,1,31,94.47a2.4,2.4,0,0,1-2.58,2.44A2.32,2.32,0,0,1,25.89,94.58Zm4.19.11a1.89,1.89,0,0,0-1.79-2.13c-.69,0-1.49.37-1.49,1.84a2,2,0,0,0,1.86,2.19C29.1,96.59,30.08,96.39,30.08,94.69Z"/>
    <path class="cls-2" d="M32,96.76c-.09,0-.12-.07-.12-.21,0-.32,0-.69,0-.79s0-.15.08-.15.06,0,.06.1a.93.93,0,0,0,1,.89.77.77,0,0,0,.85-.75c0-.26-.06-.52-.61-.84L33,94.8c-.72-.43-1-.83-1-1.36,0-.72.7-1.19,1.55-1.19a3.91,3.91,0,0,1,.88.09s.08,0,.08.08,0,.25,0,.72c0,.12,0,.19-.08.19s-.06,0-.06-.11a.67.67,0,0,0-.16-.39.84.84,0,0,0-.69-.28c-.44,0-.84.23-.84.64s.1.47.65.78l.26.14c.81.45,1.06.9,1.06,1.44a1.3,1.3,0,0,1-.61,1.12,1.82,1.82,0,0,1-1,.24A2.65,2.65,0,0,1,32,96.76Z"/>
    <path class="cls-2" d="M38.77,93.72a1.57,1.57,0,0,1-.36-1c0-.55.49-1.29,1.7-1.29a2.31,2.31,0,0,1,.85.15c.12,0,.12.1.12.18a8.83,8.83,0,0,1-.08.9c0,.1,0,.12-.08.12s-.05,0-.05-.14a1,1,0,0,0-.2-.59,1,1,0,0,0-.78-.31.75.75,0,0,0-.75.8c0,.66.6,1.22,1.16,1.84.24.27,1.1,1,1.24,1.17a2.12,2.12,0,0,0,.33-1.08.43.43,0,0,0-.13-.32.55.55,0,0,0-.34-.11s-.09,0-.09,0,.06-.07.11-.07a6.16,6.16,0,0,1,.84,0c.14,0,.24,0,.24.14a2.78,2.78,0,0,1-.68,1.66,7.3,7.3,0,0,0,1,.68,1.93,1.93,0,0,0,.75.25c.06,0,.1,0,.1.06s-.06.06-.21.06h-.54a2.1,2.1,0,0,1-1.66-.54,2.24,2.24,0,0,1-1.65.64c-1.5,0-1.95-.94-1.95-1.55A2.08,2.08,0,0,1,38.77,93.72ZM41,96.07c-.4-.35-1.08-1-1.26-1.2s-.63-.7-.75-.88a1.27,1.27,0,0,0-.48,1.07,1.34,1.34,0,0,0,1.34,1.43A1.87,1.87,0,0,0,41,96.07Z"/>
    <path class="cls-2" d="M46.28,93.57c0-1.06,0-1.26,0-1.48s-.07-.35-.3-.4a1.14,1.14,0,0,0-.28,0c-.07,0-.12,0-.12-.07s0-.06.16-.06h2.76a1.55,1.55,0,0,0,.3,0,.35.35,0,0,1,.11,0s0,0,0,.07,0,.13,0,.45c0,.07,0,.38,0,.46s0,.08-.07.08-.06,0-.06-.1a.91.91,0,0,0,0-.25c0-.13-.12-.21-.47-.25-.12,0-.86,0-1,0s-.05,0-.05.07v1.77s0,.08.05.08h1.12c.17,0,.28,0,.34-.11s.08-.09.11-.09,0,0,0,.06,0,.15-.06.51c0,.14,0,.42,0,.47s0,.13-.07.13a.05.05,0,0,1-.06-.06c0-.07,0-.16,0-.26s-.13-.24-.39-.27l-1,0s-.05,0-.05.07v1.64c0,.48.13.59.84.59a1.65,1.65,0,0,0,.66-.09c.18-.08.27-.23.32-.52,0-.07,0-.1.07-.1s.06.06.06.13a6.24,6.24,0,0,1-.09.77c-.05.19-.11.19-.38.19-.52,0-.91,0-1.21,0l-.73,0h-.88c-.09,0-.14,0-.14-.07s0-.05.11-.05a1.42,1.42,0,0,0,.25,0c.14,0,.18-.18.21-.39s0-.84,0-1.49Z"/>
    <path class="cls-2" d="M50.81,96c0,.46.09.6.21.65a1.17,1.17,0,0,0,.32,0c.07,0,.11,0,.11.06s-.06.06-.14.06c-.4,0-.69,0-.8,0l-.67,0c-.08,0-.14,0-.14-.06s0-.06.1-.06a1.33,1.33,0,0,0,.28,0c.16,0,.18-.2.19-.72l.06-3.53c0-.12,0-.2.1-.2s.16.09.27.19,1,1,1.9,1.9c.42.41,1.23,1.25,1.33,1.34h0L53.89,93c0-.36-.06-.47-.21-.52a.91.91,0,0,0-.32,0c-.08,0-.1,0-.1-.06s.06-.06.15-.06H54.8c.09,0,.14,0,.14.06s0,.06-.1.06a.62.62,0,0,0-.19,0c-.17,0-.22.15-.23.49l-.07,3.76c0,.13-.05.18-.09.18a.4.4,0,0,1-.26-.12l-1.8-1.72c-.67-.64-1.32-1.36-1.44-1.47h0Z"/>
    <path class="cls-2" d="M57.13,92.7l-.92,0c-.35,0-.5,0-.59.18a.69.69,0,0,0-.11.2c0,.05,0,.08-.07.08s0,0,0-.1.12-.67.13-.72,0-.11.07-.11.11,0,.27.07a6,6,0,0,0,.61,0H59l.42,0,.17,0s0,0,0,.12,0,.57,0,.73,0,.09-.06.09-.06,0-.07-.11v-.07c0-.15-.17-.33-.73-.34H58v2.4c0,.55,0,1,0,1.28s.06.28.24.31l.31,0c.08,0,.1,0,.1.06s0,.06-.12.06l-1,0-.81,0c-.07,0-.12,0-.12-.06s0-.06.1-.06l.22,0c.13,0,.16-.14.18-.32s0-.72,0-1.27Z"/>
    <path class="cls-2" d="M60.74,94.05c0-.9,0-1.07,0-1.26s-.07-.26-.26-.32l-.25,0c-.06,0-.1,0-.1-.06s.05-.06.14-.06h2.57a1.32,1.32,0,0,0,.26,0l.1,0s0,0,0,.06a2,2,0,0,0,0,.38c0,.07,0,.33,0,.4s0,.09-.07.09,0,0,0-.07a.49.49,0,0,0-.05-.22c0-.11-.09-.19-.4-.22l-1,0s0,0,0,.06V94.2s0,.06,0,.06h1.08c.15,0,.24,0,.29-.09s.07-.08.1-.08.05,0,.05.07,0,.13-.05.43c0,.12,0,.36,0,.4s0,.13-.06.13-.06,0-.06,0a.78.78,0,0,0,0-.21c0-.12-.11-.21-.34-.24l-1,0s0,0,0,.06v.48c0,.2,0,.7,0,.88,0,.4.2.49.83.49a1.65,1.65,0,0,0,.58-.07c.16-.07.23-.2.27-.44,0-.07,0-.09.07-.09s.06.07.06.14a3.4,3.4,0,0,1-.09.65c0,.16-.1.16-.33.16l-1.13,0-.72,0h-.77q-.12,0-.12-.06s0-.06.09-.06l.22,0c.13,0,.16-.14.18-.32s0-.72,0-1.27Z"/>
    <path class="cls-2" d="M64.63,94.05V92.79c0-.2-.07-.26-.27-.32l-.24,0c-.07,0-.11,0-.11-.06s0-.06.14-.06H66a2.23,2.23,0,0,1,1.17.25,1,1,0,0,1,.43.82c0,.44-.25.84-.85,1.32.55.67,1,1.21,1.35,1.58a1.11,1.11,0,0,0,.66.39.41.41,0,0,0,.15,0s.07,0,.07.06,0,.06-.11.06h-.59a1.44,1.44,0,0,1-.68-.11,3.09,3.09,0,0,1-.84-.88c-.24-.32-.5-.72-.58-.81A.12.12,0,0,0,66,95l-.55,0a0,0,0,0,0,0,0v.08c0,.56,0,1,0,1.27s0,.29.24.32l.3,0c.05,0,.08,0,.08.06s0,.06-.13.06l-1,0-.75,0q-.12,0-.12-.06s0-.06.1-.06l.21,0c.13,0,.16-.14.19-.32s0-.72,0-1.27Zm.79.47c0,.06,0,.08,0,.1a1.84,1.84,0,0,0,.47.06.62.62,0,0,0,.44-.1,1,1,0,0,0,.4-.88.94.94,0,0,0-.94-1.06l-.37,0s0,0,0,.08Z"/>
    <path class="cls-2" d="M70,92.7l-.92,0c-.35,0-.5,0-.59.18a.69.69,0,0,0-.11.2c0,.05,0,.08-.07.08s0,0,0-.1.12-.67.13-.72,0-.11.07-.11.11,0,.27.07a6,6,0,0,0,.61,0h2.5l.42,0,.17,0s0,0,0,.12,0,.57,0,.73,0,.09-.06.09-.06,0-.07-.11v-.07c0-.15-.17-.33-.73-.34h-.77v2.4c0,.55,0,1,0,1.28s.06.28.24.31l.32,0c.06,0,.09,0,.09.06s0,.06-.12.06l-1,0-.81,0c-.07,0-.12,0-.12-.06s0-.06.1-.06l.22,0c.13,0,.16-.14.18-.32s0-.72,0-1.27Z"/>
    <path class="cls-2" d="M73.45,95.34s0,0-.06,0l-.33.8a1.09,1.09,0,0,0-.09.36c0,.11.06.17.25.17h.09c.07,0,.09,0,.09.06s0,.06-.1.06l-.69,0-.71,0c-.08,0-.11,0-.11-.06s0-.06.07-.06H72c.28,0,.38-.22.51-.52l1.61-3.75c.07-.17.12-.24.18-.24s.12.06.19.19c.14.33,1.17,2.77,1.56,3.67.24.54.42.62.53.64l.23,0q.09,0,.09.06s0,.06-.27.06H75.49c-.12,0-.19,0-.19,0s0,0,.08-.06a.1.1,0,0,0,.06-.13L75,95.38s0,0-.06,0ZM74.76,95s0,0,0,0l-.58-1.51s0-.06,0-.06,0,0,0,.06l-.6,1.5s0,.05,0,.05Z"/>
    <path class="cls-2" d="M77.61,94.05c0-.9,0-1.07,0-1.26s-.08-.27-.21-.31a.85.85,0,0,0-.23,0c-.06,0-.09,0-.09-.07s.05,0,.14,0h1.62c.08,0,.13,0,.13,0s0,.07-.1.07l-.18,0c-.17,0-.22.11-.23.32s0,.36,0,1.26v1c0,.58,0,1.06,0,1.31s.06.25.25.28l.31,0c.07,0,.1,0,.1.06s-.05.06-.12.06l-1,0-.8,0q-.12,0-.12-.06s0-.06.1-.06l.22,0c.12,0,.16-.11.18-.29s0-.72,0-1.3Z"/>
    <path class="cls-2" d="M80.84,96c0,.46.09.6.21.65a1.17,1.17,0,0,0,.32,0c.07,0,.11,0,.11.06s-.06.06-.15.06l-.79,0-.67,0c-.08,0-.14,0-.14-.06s0-.06.1-.06a1.33,1.33,0,0,0,.28,0c.16,0,.18-.2.19-.72l0-3.53c0-.12.05-.2.11-.2s.16.09.27.19,1,1,1.89,1.9L84,95.66h0L83.92,93c0-.36-.06-.47-.21-.52a.91.91,0,0,0-.32,0c-.08,0-.1,0-.1-.06s.06-.06.15-.06h1.39c.08,0,.14,0,.14.06s0,.06-.1.06a.62.62,0,0,0-.19,0c-.17,0-.22.15-.23.49l-.07,3.76c0,.13,0,.18-.1.18a.37.37,0,0,1-.25-.12l-1.8-1.72c-.67-.64-1.32-1.36-1.44-1.47h0Z"/>
    <path class="cls-2" d="M86.57,92.35c0-.1.07-.15.12-.15s.1,0,.19.19l1.65,3.32,1.65-3.37c0-.09.11-.14.17-.14s.11.06.14.19l.56,3.67c0,.38.11.54.3.59a1.19,1.19,0,0,0,.35.06s.1,0,.1.05-.07.07-.17.07-1,0-1.27,0-.18,0-.18-.07,0,0,.07-.06,0-.08,0-.25l-.35-2.58h0l-1.32,2.66c-.14.28-.18.34-.25.34s-.14-.12-.24-.3-.64-1.19-.71-1.36-.41-.86-.62-1.27h0l-.29,2.33a1.27,1.27,0,0,0,0,.27c0,.12.08.16.19.18l.21,0c.06,0,.1,0,.1.05s0,.07-.15.07l-.65,0-.61,0c-.06,0-.11,0-.11-.07s0-.05.1-.05l.19,0c.17,0,.22-.25.25-.45Z"/>
    <path class="cls-2" d="M92.8,94.05c0-.9,0-1.07,0-1.26s-.07-.26-.26-.32l-.25,0c-.06,0-.1,0-.1-.06s0-.06.14-.06h2.57a1.32,1.32,0,0,0,.26,0l.1,0s0,0,0,.06a2,2,0,0,0-.05.38c0,.07,0,.33,0,.4s0,.09-.07.09,0,0,0-.07a.47.47,0,0,0,0-.22c-.05-.11-.1-.19-.4-.22l-1,0s0,0,0,.06V94.2s0,.06,0,.06h1.08a.41.41,0,0,0,.29-.09s.07-.08.1-.08,0,0,0,.07,0,.13,0,.43c0,.12,0,.36,0,.4s0,.13-.06.13-.06,0-.06,0a.78.78,0,0,0,0-.21c0-.12-.11-.21-.34-.24l-1,0s0,0,0,.06v.48c0,.2,0,.7,0,.88,0,.4.2.49.83.49a1.65,1.65,0,0,0,.58-.07c.16-.07.23-.2.27-.44,0-.07,0-.09.07-.09s.05.07.05.14a4.44,4.44,0,0,1-.08.65c0,.16-.1.16-.33.16l-1.13,0-.72,0h-.78c-.07,0-.11,0-.11-.06s0-.06.09-.06l.22,0c.13,0,.16-.14.18-.32s0-.72,0-1.27Z"/>
    <path class="cls-2" d="M97.08,96c0,.46.09.6.21.65a1.17,1.17,0,0,0,.32,0c.07,0,.11,0,.11.06s-.06.06-.14.06l-.8,0-.67,0c-.08,0-.14,0-.14-.06s0-.06.1-.06a1.33,1.33,0,0,0,.28,0c.16,0,.18-.2.19-.72l0-3.53c0-.12,0-.2.11-.2s.16.09.27.19,1,1,1.89,1.9c.42.41,1.24,1.25,1.34,1.34h0L100.16,93c0-.36-.06-.47-.21-.52a.91.91,0,0,0-.32,0c-.08,0-.1,0-.1-.06s.06-.06.15-.06h1.39c.08,0,.14,0,.14.06s0,.06-.1.06a.62.62,0,0,0-.19,0c-.17,0-.22.15-.23.49l-.07,3.76c0,.13-.05.18-.1.18a.37.37,0,0,1-.25-.12l-1.8-1.72c-.67-.64-1.32-1.36-1.44-1.47h0Z"/>
    <path class="cls-2" d="M103.4,92.7l-.92,0c-.36,0-.5,0-.59.18a.69.69,0,0,0-.11.2c0,.05,0,.08-.07.08s0,0,0-.1a6.24,6.24,0,0,1,.13-.72c0-.08,0-.11.07-.11s.11,0,.26.07.42,0,.62,0h2.5l.42,0,.17,0s0,0,0,.12,0,.57,0,.73,0,.09,0,.09-.06,0-.07-.11v-.07c0-.15-.17-.33-.73-.34h-.77v2.4c0,.55,0,1,0,1.28s.06.28.24.31l.31,0c.07,0,.1,0,.1.06s0,.06-.12.06l-1,0-.81,0c-.07,0-.12,0-.12-.06s0-.06.1-.06l.22,0c.13,0,.16-.14.18-.32s0-.72,0-1.27Z"/>
    <path class="cls-2" d="M109.94,95.1c0,.77,0,1.15.13,1.26s.34.12.82.12c.33,0,.57,0,.72-.16a.68.68,0,0,0,.15-.36c0-.06,0-.09.07-.09s.06.06.06.13a4.5,4.5,0,0,1-.09.69c0,.13-.07.16-.39.16l-1.11,0-.82,0h-.78c-.07,0-.12,0-.12-.06s0-.06.1-.06l.22,0c.13,0,.16-.14.18-.32s0-.72,0-1.27v-1c0-.9,0-1.07,0-1.26s-.07-.26-.26-.32l-.21,0c-.07,0-.1,0-.1-.06s0-.06.13-.06h1.74c.09,0,.13,0,.13.06s0,.06-.11.06l-.24,0c-.17,0-.22.11-.23.32s0,.36,0,1.26Z"/>
    <path class="cls-2" d="M113,94.05V92.79c0-.2-.08-.27-.21-.31a.85.85,0,0,0-.23,0c-.06,0-.09,0-.09-.07s0,0,.14,0h1.62c.08,0,.13,0,.13,0s0,.07-.1.07l-.18,0c-.17,0-.22.11-.24.32s0,.36,0,1.26v1c0,.58,0,1.06,0,1.31s.06.25.24.28l.32,0c.07,0,.1,0,.1.06s0,.06-.12.06l-1,0-.8,0q-.12,0-.12-.06s0-.06.1-.06l.21,0c.13,0,.17-.11.19-.29s0-.72,0-1.3Z"/>
    <path class="cls-2" d="M116.05,92.35c0-.1.07-.15.12-.15s.11,0,.19.19L118,95.71l1.65-3.37c0-.09.1-.14.16-.14s.12.06.14.19l.56,3.67c.06.38.11.54.3.59a1.24,1.24,0,0,0,.35.06c.06,0,.1,0,.1.05s-.07.07-.16.07-1,0-1.28,0-.18,0-.18-.07,0,0,.07-.06,0-.08,0-.25l-.34-2.58h0l-1.32,2.66c-.14.28-.17.34-.24.34s-.15-.12-.25-.3-.64-1.19-.71-1.36l-.61-1.27h0l-.3,2.33a2.65,2.65,0,0,0,0,.27c0,.12.08.16.19.18l.22,0s.1,0,.1.05-.06.07-.15.07l-.65,0-.61,0c-.07,0-.11,0-.11-.07s0-.05.09-.05l.19,0c.17,0,.23-.25.25-.45Z"/>
    <path class="cls-2" d="M122.28,94.05V92.79c0-.2-.08-.27-.21-.31a.85.85,0,0,0-.23,0c-.06,0-.09,0-.09-.07s0,0,.14,0h1.62c.08,0,.13,0,.13,0s0,.07-.1.07l-.18,0c-.17,0-.22.11-.24.32s0,.36,0,1.26v1c0,.58,0,1.06,0,1.31s.06.25.24.28l.32,0c.07,0,.1,0,.1.06s0,.06-.12.06l-1,0-.8,0q-.12,0-.12-.06s0-.06.1-.06l.21,0c.13,0,.17-.11.19-.29s0-.72,0-1.3Z"/>
    <path class="cls-2" d="M126,92.7l-.92,0c-.35,0-.5,0-.59.18a1.07,1.07,0,0,0-.11.2c0,.05,0,.08-.07.08s-.05,0-.05-.1.12-.67.13-.72,0-.11.07-.11.11,0,.27.07a6,6,0,0,0,.61,0h2.5l.42,0,.17,0s.05,0,.05.12,0,.57,0,.73,0,.09-.06.09-.06,0-.07-.11v-.07c0-.15-.17-.33-.72-.34h-.78v2.4c0,.55,0,1,0,1.28s.06.28.24.31l.32,0c.07,0,.09,0,.09.06s0,.06-.11.06l-1,0-.8,0q-.12,0-.12-.06s0-.06.09-.06l.22,0c.13,0,.16-.14.18-.32s0-.72,0-1.27Z"/>
    <path class="cls-2" d="M129.56,94.05V92.79c0-.2-.07-.26-.27-.32l-.25,0c-.06,0-.1,0-.1-.06s.05-.06.14-.06h2.57a1.32,1.32,0,0,0,.26,0l.1,0s0,0,0,.06a2,2,0,0,0-.05.38c0,.07,0,.33,0,.4s0,.09-.07.09-.05,0-.05-.07a.49.49,0,0,0,0-.22c0-.11-.09-.19-.4-.22l-1,0s0,0,0,.06V94.2s0,.06,0,.06h1.08c.15,0,.24,0,.29-.09s.07-.08.1-.08,0,0,0,.07,0,.13,0,.43c0,.12,0,.36,0,.4s0,.13-.06.13-.05,0-.05,0a1.77,1.77,0,0,0,0-.21c0-.12-.11-.21-.34-.24l-1,0s0,0,0,.06v.48c0,.2,0,.7,0,.88,0,.4.2.49.83.49a1.65,1.65,0,0,0,.58-.07c.16-.07.23-.2.27-.44,0-.07,0-.09.07-.09s.06.07.06.14a3.4,3.4,0,0,1-.09.65c0,.16-.1.16-.33.16l-1.13,0-.72,0h-.77q-.12,0-.12-.06s0-.06.1-.06l.21,0c.13,0,.16-.14.19-.32s0-.72,0-1.27Z"/>
    <path class="cls-2" d="M133.46,94.05c0-.9,0-1.07,0-1.26s-.07-.26-.27-.32l-.24,0c-.07,0-.11,0-.11-.06s0-.06.14-.06h1.89a3.36,3.36,0,0,1,2.48.68,2.09,2.09,0,0,1,.58,1.51,2.3,2.3,0,0,1-.67,1.66,2.87,2.87,0,0,1-2.06.7l-.74,0-.62,0h-.78q-.12,0-.12-.06s0-.06.1-.06l.22,0c.12,0,.16-.14.18-.32s0-.72,0-1.27Zm.82.66c0,.63,0,1.09,0,1.21a1,1,0,0,0,.07.42c.07.11.32.24.8.24a2,2,0,0,0,1.35-.41,1.81,1.81,0,0,0,.52-1.48,1.92,1.92,0,0,0-.57-1.48,2.47,2.47,0,0,0-1.73-.57,1.18,1.18,0,0,0-.37,0c-.06,0-.08,0-.08.12s0,.69,0,1.16Z"/>
  </g>
</svg>