<svg data-testid="desktop" fill="#ff8000" height="46" viewBox="0 0 108 40" xmlns="http://www.w3.org/2000/svg" class="sc-70826d0c-1 eCdGow"><path d="M68.3155 0.592622C68.8503 0.761511 69.16 1.32447 68.9911 1.85929L58.0414 39.4652H39.5763C39.0696 39.4652 38.6474 39.1274 38.5629 38.6489L36.5081 28.1496L33.834 32.0059L31.6385 39.4652H22.8563C22.7718 39.4652 22.6592 39.4652 22.5748 39.437C22.0118 39.2963 21.7022 38.7052 21.8711 38.1704L23.8696 31.3867C20.52 37.4667 14.8341 40 8.27555 40C3.82815 40 0 38.0578 0 38.0578L0.253333 37.2133L2.19555 30.5422C2.28 30.2045 2.56148 29.9511 2.89926 29.8385C3.23703 29.7822 3.60296 29.8667 3.91259 30.0356C3.96161 30.0569 4.01037 30.0782 4.05888 30.0993C5.73748 30.8313 7.12764 31.4374 9.28888 31.2459C11.3155 31.077 13.4267 29.8385 13.7926 27.6711C14.0459 26.123 12.9481 24.7719 11.3437 23.0548L11.1467 22.8296C8.92296 20.3808 5.88296 17.0311 6.69925 12.3022C7.82518 5.51855 14.8341 0.00151051 22.5467 0.00151051C24.3763 -0.0266376 26.1778 0.339288 27.8666 1.04299L27.9229 1.07114L28.12 1.15558L29.5274 1.80299L27.4726 8.69928C27.3881 8.98076 27.1629 9.2341 26.8533 9.34669C26.7126 9.40299 26.5718 9.43113 26.4311 9.43113C26.2622 9.43113 26.0933 9.40299 25.9244 9.31854C25.7108 9.22027 25.5082 9.12136 25.3105 9.02485C24.2059 8.48551 23.2549 8.02121 21.3926 8.16447C19.4222 8.24891 17.7896 9.74076 17.5363 11.7111C17.3674 13.1185 18.3244 14.4134 19.957 16.2148C20.0536 16.3209 20.1535 16.4301 20.2562 16.5423C22.279 18.7525 25.3815 22.1424 25.2207 26.3482L32.8207 0.536325H41.6029C41.9126 0.536325 42.2222 0.705214 42.4192 0.958547C42.6163 1.21188 42.6726 1.54966 42.5881 1.85929L38.5629 14.5259L48.077 0.564473H56.9437C56.9577 0.564473 56.9789 0.57151 57 0.578547C57.0211 0.585585 57.0422 0.592622 57.0563 0.592622C57.3096 0.648918 57.4222 0.902251 57.3659 1.12744L57.1407 1.85929C57.0844 2.00003 57.0281 2.11262 56.9437 2.22521L44.5022 19.2267L48.5837 36.8756L59.3081 0.564473H68.034C68.1185 0.536325 68.2311 0.564474 68.3155 0.592622Z" fill="#FF8000"></path><path clip-rule="evenodd" d="M85.7392 0.564476C88.3007 0.536328 90.7496 1.60596 92.4666 3.49188C94.2399 5.4341 94.9999 7.74225 95.0281 10.8104C95.0562 12.1897 94.634 14.2445 93.7896 17.1156C91.7066 24.1526 87.034 30.6267 77.8296 30.5141H74.0014L71.3555 39.4652H62.8829C62.5451 39.4652 62.2637 39.2963 62.0666 39.043C61.8977 38.7896 61.8414 38.4519 61.9259 38.1422L71.3555 5.96892C71.5807 5.23707 71.4681 4.47707 71.074 3.82966L70.6518 3.18225C70.5392 3.01336 70.5111 2.81633 70.5674 2.61929L71.1866 0.564476H85.7392ZM89.2859 15.7363L88.554 15.2578C88.4133 15.1734 88.3851 14.9763 88.5259 14.8919L90.1866 12.5556L87.6814 12.7808C87.5407 12.8089 87.4281 12.6963 87.4281 12.5556L87.3718 11.5141L84.6977 13.5126C84.557 13.6252 84.3599 13.4563 84.4444 13.2874L86.9214 8.61484L85.2044 9.34669C85.0355 9.43114 84.8385 9.31854 84.8103 9.12151L84.4444 6.2504L81.9955 9.03706C81.8548 9.1778 81.6577 9.20595 81.517 9.09336L80.4473 8.19262L79.6592 12.9778C79.6029 13.2311 79.2651 13.3156 79.1525 13.0904L77.9703 10.9793L77.1822 11.9926C77.0414 12.1897 76.8162 12.246 76.591 12.1897L74.6207 11.5704L74.5925 13.9348C74.5925 14.1882 74.4237 14.4134 74.1703 14.4978L73.2133 14.8356L76.2251 18.6074L74.874 20.3245H78.9555L77.717 23.9274H79.5185L80.5881 20.3245H83.8533L83.8251 19.0015L89.2859 15.7363Z" fill="#FF8000" fill-rule="evenodd"></path></svg>